<?xml version="1.0" standalone="no"?>
<!DOCTYPE svg PUBLIC "-//W3C//DTD SVG 20010904//EN"
 "http://www.w3.org/TR/2001/REC-SVG-20010904/DTD/svg10.dtd">
<svg version="1.0" xmlns="http://www.w3.org/2000/svg"
 width="512.000000pt" height="512.000000pt" viewBox="0 0 512.000000 512.000000"
 preserveAspectRatio="xMidYMid meet">
<metadata>
Created by potrace 1.14, written by Peter Selinger 2001-2017
</metadata>
<g transform="translate(0.000000,512.000000) scale(0.100000,-0.100000)"
fill="#000000" stroke="none">
<path d="M2640 4433 l0 -448 546 -315 c301 -173 554 -319 564 -323 13 -7 113
46 404 214 314 182 383 225 369 233 -46 25 -1822 1050 -1850 1068 l-33 20 0
-449z"/>
<path d="M1548 4327 c-515 -298 -939 -545 -943 -548 -3 -3 164 -104 372 -224
316 -182 381 -216 399 -209 13 5 268 151 568 324 l546 315 0 443 c0 243 -1
442 -2 441 -2 0 -425 -244 -940 -542z"/>
<path d="M2032 3552 c-292 -169 -528 -310 -524 -313 4 -4 242 -142 530 -308
l523 -302 497 288 c273 158 514 296 534 308 l37 21 -527 304 c-290 167 -530
305 -533 306 -3 2 -245 -135 -537 -304z"/>
<path d="M500 2566 c0 -602 3 -1097 8 -1099 5 -3 523 292 755 430 l37 22 0
639 c0 500 -3 642 -12 650 -16 13 -777 452 -783 452 -3 0 -5 -492 -5 -1094z"/>
<path d="M4223 3437 l-383 -222 1 -655 0 -655 321 -185 c177 -102 352 -202
390 -223 l68 -39 0 1101 c0 606 -3 1101 -7 1100 -5 0 -180 -101 -390 -222z"/>
<path d="M1432 2509 l3 -604 520 -301 c286 -165 523 -299 528 -297 4 2 7 271
7 598 l0 594 -27 19 c-32 22 -1000 582 -1020 589 -11 4 -13 -105 -11 -598z"/>
<path d="M3153 2807 l-522 -302 -1 -603 0 -604 33 20 c17 11 256 149 530 307
l497 287 0 599 c0 329 -3 599 -7 598 -5 0 -243 -136 -530 -302z"/>
<path d="M971 1566 c-211 -121 -383 -226 -382 -231 1 -10 1852 -1084 1884
-1092 16 -5 17 21 17 440 l0 446 -27 19 c-25 17 -1036 602 -1088 629 -17 9
-78 -23 -404 -211z"/>
<path d="M3193 1462 l-563 -326 0 -448 c0 -246 2 -448 4 -448 9 0 1891 1091
1894 1098 2 6 -761 454 -770 451 -2 0 -256 -147 -565 -327z"/>
</g>
</svg>
